#!OML:ASF F:\VICON\USERDATA\INSTALL\rory3\rory3.ASF
:FULLY-SPECIFIED
:DEGREES
33
root 1.02823 17.9802 -23.3668 -3.4829 -1.64243 1.04609
lowerback 11.1499 -0.155097 -2.27952
upperback 0.263991 -0.414705 1.36681
thorax -5.95849 -0.119477 2.79014
lowerneck -14.9844 -2.56572 -2.10174
upperneck 26.7065 -2.82525 -0.995817
head 11.1408 -1.6269 -0.398157
rclavicle 6.59717e-015 1.47101e-014
rhumerus -31.0878 -16.1142 -79.686
rradius 25.974
rwrist 3.19938
rhand -17.5751 25.1706
rfingers 7.12502
rthumb 8.68037 -4.63092
lclavicle 6.59717e-015 1.47101e-014
lhumerus -31.7759 5.97123 81.5139
lradius 22.788
lwrist 6.28367
lhand -27.821 19.7497
lfingers 7.12502
lthumb -1.21304 49.726
rfemur -28.7748 -3.2081 21.4821
rtibia 68.531
rfoot -8.64029 -1.87943
rtoes 0.0178652
lfemur -3.79563 -1.54488 -26.1744
ltibia 24.2244
lfoot -14.5454 -4.43328
ltoes 7.3068
34
root 1.0213 17.9657 -23.2033 -3.43446 -1.40034 1.08618
lowerback 11.2388 -0.161115 -2.25707
upperback 0.393424 -0.427117 1.26956
thorax -5.87162 -0.130456 2.6767
lowerneck -15.527 -2.6894 -1.95098
upperneck 26.6365 -3.06953 -0.851674
head 11.2227 -1.70264 -0.413394
rclavicle -1.25731e-014 4.77083e-015
rhumerus -31.0991 -16.7326 -79.6256
rradius 25.8726
rwrist 3.37403
rhand -17.5043 26.5222
rfingers 7.12502
rthumb 8.7487 -3.27646
lclavicle -1.25731e-014 4.77083e-015
lhumerus -30.8932 4.96672 81.7156
lradius 23.0718
lwrist 6.75792
lhand -27.8582 18.7143
lfingers 7.12502
lthumb -1.24898 48.6904
rfemur -29.4845 -3.1135 21.4509
rtibia 67.0398
rfoot -9.17848 -2.02027
rtoes -0.298106
lfemur -3.33052 -1.52859 -26.2476
ltibia 24.2804
lfoot -14.9627 -4.51687
ltoes 7.2872
35
root 1.01326 17.9585 -23.0397 -3.24552 -1.00662 1.17528
lowerback 10.9878 -0.163723 -2.22773
upperback 0.823434 -0.430123 1.10738
thorax -5.2789 -0.148747 2.48247
lowerneck -17.0963 -2.83351 -1.5436
upperneck 26.7901 -3.35928 -0.841846
head 11.5868 -1.78531 -0.549389
rclavicle 1.73937e-016 6.36111e-015
rhumerus -30.3607 -17.9592 -79.6397
rradius 25.4393
rwrist 4.0889
rhand -16.8627 29.2959
rfingers 7.12502
rthumb 9.3678 -0.475891
lclavicle 1.73937e-016 6.36111e-015
lhumerus -29.3958 3.7328 81.9462
lradius 23.418
lwrist 7.32969
lhand -28.0957 17.2874
lfingers 7.12502
lthumb -1.47838 47.262
rfemur -30.2492 -3.09075 21.3505
rtibia 65.3673
rfoot -9.73718 -2.45652
rtoes -0.621766
lfemur -2.96913 -1.53326 -26.3551
ltibia 24.3252
lfoot -15.5167 -4.76754
ltoes 7.28928
36
root 1.00711 17.9485 -22.8727 -3.06455 -0.735008 1.19228
lowerback 11.012 -0.638374 -2.71158
upperback 0.041554 -1.09947 1.54875
thorax -6.0602 -0.435878 3.33643
lowerneck -14.6625 -2.37342 -2.24931
upperneck 26.4653 -2.55637 -0.876561
head 10.989 -1.50526 -0.285341
rclavicle 1.08089e-014 -1.03368e-014
rhumerus -31.9397 -16.9149 -78.6076
rradius 25.0413
rwrist 5.54657
rhand -14.3355 30.3964
rfingers 7.12502
rthumb 11.8056 0.749182
lclavicle 1.08089e-014 -1.03368e-014
lhumerus -30.9857 4.58509 81.8923
lradius 24.1929
lwrist 7.37696
lhand -28.3007 17.9128
lfingers 7.12502
lthumb -1.67633 47.8859
rfemur -30.938 -2.98308 21.3265
rtibia 63.5375
rfoot -10.0925 -2.98678
rtoes -0.526449
lfemur -2.59293 -1.71033 -26.4082
ltibia 24.3488
lfoot -15.9033 -4.79285
ltoes 8.03018
37
root 1.00303 17.9265 -22.7063 -3.01291 -0.677065 1.24947
lowerback 11.1701 -0.45471 -2.4733
upperback 0.383292 -0.844604 1.25453
thorax -5.81467 -0.330702 2.84867
lowerneck -16.4243 -2.6506 -1.7167
upperneck 26.9233 -3.06837 -0.828804
head 11.5066 -1.67341 -0.462869
rclavicle -3.67752e-015 1.59028e-015
rhumerus -31.5825 -17.3739 -79.1853
rradius 25.5372
rwrist 4.17415
rhand -15.3669 15.7182
rfingers 7.12502
rthumb 10.8108 -13.9835
lclavicle -3.67752e-015 1.59028e-015
lhumerus -29.4664 3.32343 81.8931
lradius 24.5084
lwrist 7.48073
lhand -27.9895 20.4552
lfingers 7.12502
lthumb -1.3758 50.4305
rfemur -31.4107 -2.7323 21.2211
rtibia 61.5686
rfoot -10.3287 -3.44698
rtoes -1.15393
lfemur -1.99094 -1.7297 -26.5352
ltibia 24.2777
lfoot -16.3248 -4.52761
ltoes 7.26746
38
root 0.99391 17.9135 -22.5413 -2.94606 -0.586691 1.30817
lowerback 11.1834 -0.807246 -3.0827
upperback -0.0334632 -1.36591 1.72036
thorax -6.20365 -0.548509 3.77705
lowerneck -14.6833 -2.37423 -2.56396
upperneck 26.4718 -2.49078 -0.816854
head 11.0021 -1.50031 -0.20203
rclavicle -2.6339e-015 4.77083e-015
rhumerus -32.4382 -15.5497 -78.9438
rradius 25.8453
rwrist 3.71766
rhand -17.6101 22.2796
rfingers 7.12502
rthumb 8.64659 -7.52336
lclavicle -2.6339e-015 4.77083e-015
lhumerus -30.3212 4.22775 82.0059
lradius 25.1327
lwrist 7.29123
lhand -27.8995 22.3708
lfingers 7.12502
lthumb -1.28889 52.3466
rfemur -31.8095 -2.41247 21.1032
rtibia 59.4243
rfoot -10.3881 -3.64264
rtoes 0.0598953
lfemur -1.31131 -1.63021 -26.6099
ltibia 24.024
lfoot -16.7391 -4.41208
ltoes 6.83471
